<?xml version="1.0" standalone="no"?>
<!DOCTYPE svg PUBLIC "-//W3C//DTD SVG 20010904//EN"
 "http://www.w3.org/TR/2001/REC-SVG-20010904/DTD/svg10.dtd">
<svg version="1.0" xmlns="http://www.w3.org/2000/svg"
 width="665.000000pt" height="375.000000pt" viewBox="0 0 665.000000 375.000000"
 preserveAspectRatio="xMidYMid meet">

<g transform="translate(0.000000,375.000000) scale(0.100000,-0.100000)"
fill="#000000" stroke="none">
<path d="M1994 2149 c-49 -12 -115 -65 -138 -113 -18 -39 -21 -102 -6 -141 8
-20 6 -38 -6 -73 -34 -95 10 -198 106 -252 36 -19 59 -24 115 -24 61 0 77 4
116 28 69 44 103 98 107 173 3 36 -1 76 -8 92 -9 22 -9 39 0 70 22 83 -28 180
-115 224 -41 20 -121 28 -171 16z m154 -99 c38 -23 66 -81 58 -116 -5 -20 -11
-23 -35 -18 -23 5 -35 1 -55 -19 -31 -32 -33 -50 -5 -78 15 -15 30 -20 57 -17
37 3 37 3 40 -40 6 -79 -55 -132 -150 -132 -75 0 -130 41 -142 106 -8 42 2 65
28 63 59 -4 86 15 86 61 0 38 -38 65 -80 56 -30 -5 -30 -5 -30 37 1 44 16 69
60 100 35 24 125 23 168 -3z"/>
<path d="M1480 2139 c-57 -23 -100 -85 -100 -144 0 -66 40 -116 142 -176 77
-45 108 -80 108 -120 0 -67 -95 -92 -181 -48 -23 11 -42 19 -44 17 -5 -6 -35
-67 -35 -72 0 -10 59 -36 115 -51 69 -18 141 -6 185 31 60 51 76 163 33 223
-11 14 -54 50 -98 78 -100 67 -125 91 -125 119 0 13 10 32 22 43 35 33 81 36
150 11 65 -24 71 -22 84 28 8 28 2 34 -54 55 -47 19 -162 22 -202 6z"/>
<path d="M2436 2093 c-15 -137 -35 -538 -27 -546 5 -5 24 -7 42 -5 l34 3 7 90
c4 50 10 128 14 174 5 68 8 81 19 70 7 -8 52 -79 100 -159 96 -158 112 -180
130 -180 7 0 61 79 120 175 59 96 111 175 115 175 4 0 10 -26 13 -57 3 -32 11
-109 18 -170 l12 -113 43 0 c42 0 43 1 39 28 -5 23 -13 122 -41 457 -7 86 -12
115 -22 115 -4 0 -72 -106 -152 -235 -80 -129 -147 -235 -150 -235 -3 0 -29
39 -58 88 -120 204 -229 376 -239 379 -6 2 -13 -20 -17 -54z"/>
<path d="M3733 2142 c-12 -8 -60 -100 -140 -271 -24 -52 -47 -90 -52 -85 -4 5
-22 70 -40 144 -56 234 -45 210 -100 210 l-47 0 17 -67 c9 -38 38 -151 64
-253 64 -256 74 -284 90 -270 8 6 62 109 120 228 l107 217 112 -225 c128 -260
135 -266 172 -160 118 342 174 510 174 520 0 7 -16 10 -47 8 l-46 -3 -63 -185
c-34 -102 -67 -191 -71 -199 -7 -11 -14 -5 -28 25 -10 21 -47 99 -82 173 -34
73 -63 137 -63 141 0 13 -41 60 -53 60 -7 0 -17 -4 -24 -8z"/>
<path d="M4302 1843 l3 -298 233 -3 232 -2 0 45 0 45 -190 0 -190 0 0 85 0 85
175 0 175 0 0 40 0 40 -175 0 -175 0 0 85 0 85 190 0 190 0 0 45 0 45 -235 0
-235 0 2 -297z"/>
<path d="M4872 1843 l3 -298 115 -1 c173 -1 237 6 273 30 45 30 69 78 69 135
0 55 -13 87 -49 117 l-24 21 26 39 c24 34 26 47 23 101 -3 53 -9 68 -33 94
-50 52 -81 59 -251 59 l-154 0 2 -297z m323 182 c37 -36 34 -86 -6 -119 -28
-24 -38 -26 -125 -26 l-94 0 0 85 0 85 100 0 c94 0 103 -2 125 -25z m19 -256
c36 -28 36 -81 0 -114 -25 -23 -34 -25 -135 -25 l-109 0 0 80 0 80 109 0 c94
0 112 -3 135 -21z"/>
<path d="M3200 1900 c-24 -24 -25 -48 -4 -78 18 -26 65 -30 88 -6 9 8 16 28
16 44 0 56 -60 80 -100 40z"/>
<path d="M0 1850 c0 -7 197 -10 570 -10 373 0 570 3 570 10 0 7 -197 10 -570
10 -373 0 -570 -3 -570 -10z"/>
<path d="M5485 1850 c4 -6 210 -10 586 -10 379 0 579 3 579 10 0 7 -202 10
-586 10 -387 0 -583 -3 -579 -10z"/>
</g>
</svg>
